<svg xmlns="http://www.w3.org/2000/svg" xmlns:svg="http://www.w3.org/2000/svg" id="svg8" width="374.839" height="79.712" version="1.1" viewBox="0 0 99.176 21.09"><metadata id="metadata5"/><g id="layer1" transform="translate(-67.359818,-184.3063)"><g id="g4819"><g id="g1418"><text xml:space="preserve" style="font-style:normal;font-weight:400;font-size:17.2365px;line-height:1.25;font-family:sans-serif;letter-spacing:0;word-spacing:0;fill:#383838;fill-opacity:1;stroke:none;stroke-width:.430913" id="text4770" x="72.27" y="196.923"><tspan id="tspan4768" x="72.27" y="196.923" style="font-style:normal;font-variant:normal;font-weight:700;font-stretch:normal;font-size:17.2365px;font-family:'Trade Gothic LT Std';-inkscape-font-specification:'Trade Gothic LT Std, Bold';font-variant-ligatures:normal;font-variant-caps:normal;font-variant-numeric:normal;font-feature-settings:normal;text-align:start;writing-mode:lr-tb;text-anchor:start;fill:#383838;fill-opacity:1;stroke-width:.430913">Adaptive<tspan style="fill:#c50d29;fill-opacity:1" id="tspan14913">Cpp</tspan></tspan></text><path id="path4682" d="m 72.820953,189.60551 c -3.124836,1.73051 -5.459989,3.91523 -5.461135,6.17197 5.1e-5,5.31258 9.041477,9.62174 18.26204,9.61922 9.220562,-0.003 16.254622,-2.46399 21.400712,-3.92825 5.1461,-1.46426 11.49943,-2.13051 17.28045,-2.26569 5.78101,-0.13518 23.49744,-0.6127 23.2414,-0.63052 -0.86203,-0.06 -17.53039,0.021 -23.28397,0.021 -5.75357,0 -11.8232,0.49092 -17.68829,1.82715 -5.45497,1.2428 -11.005833,3.22267 -19.694948,3.22267 -8.689115,0 -16.394936,-4.30688 -16.394639,-9.61951 0.0062,-1.53814 0.808135,-3.05316 2.33838,-4.41797 z" style="fill:#c50d29;fill-opacity:1;stroke:none;stroke-width:.161632;stroke-linejoin:miter;stroke-miterlimit:4;stroke-dasharray:none;stroke-opacity:1"/></g></g></g></svg>