<svg xmlns="http://www.w3.org/2000/svg" xmlns:svg="http://www.w3.org/2000/svg" id="svg8" width="374.839" height="79.712" version="1.1" viewBox="0 0 99.176 21.09"><metadata id="metadata5"/><g id="layer1" transform="translate(-67.359818,-184.3063)"><g id="g4819"><g id="g1418"><g id="text4770" aria-label="AdaptiveCpp" style="font-size:17.2365px;line-height:1.25;letter-spacing:0;word-spacing:0;fill:#383838;stroke-width:.430913"><path d="m 77.578686,186.8573 h 0.03447 l 1.396156,5.41226 h -2.895731 z m -5.084767,10.06612 h 2.3614 l 0.74117,-2.6889 h 3.929921 l 0.68946,2.6889 h 2.361401 l -3.533483,-12.46199 h -2.964677 z" style="font-weight:700;font-family:'Trade Gothic LT Std';-inkscape-font-specification:'Trade Gothic LT Std, Bold'" id="path833"/><path d="m 91.281671,184.47866 h -2.137326 v 4.30913 h -0.03447 c -0.430912,-0.56881 -1.447866,-0.99972 -2.171799,-0.99972 -2.309691,0 -3.585192,2.20627 -3.585192,4.41255 0,2.79231 1.206555,4.89516 3.585192,4.89516 0.965244,0 1.671941,-0.39644 2.430347,-1.13761 l 0.103419,0.96525 h 1.809832 z m -2.137326,10.10059 c -0.448149,0.34473 -0.741169,0.79288 -1.654704,0.79288 -1.275501,0 -1.999434,-1.03419 -1.999434,-2.9302 0,-1.89602 0.723933,-2.93021 1.999434,-2.93021 0.68946,0 1.223792,0.36197 1.654704,0.75841 z" style="font-weight:700;font-family:'Trade Gothic LT Std';-inkscape-font-specification:'Trade Gothic LT Std, Bold'" id="path835"/><path d="m 100.14123,196.92342 c -0.13789,-0.39644 -0.172366,-0.84459 -0.172366,-1.29274 v -4.22294 c 0,-2.6889 -1.03419,-3.56796 -3.4473,-3.61967 -1.309974,-0.0345 -2.792313,0.68946 -3.343881,1.63747 l 1.37892,1.05143 c 0.413676,-0.56881 0.965244,-1.10314 1.964961,-1.10314 0.758406,0 1.309974,0.3792 1.309974,1.06866 v 0.75841 c -3.481773,0.41367 -5.136477,1.48234 -5.136477,3.51624 0,1.2238 0.810115,2.37864 2.430346,2.37864 1.120373,0 1.930488,-0.36197 2.792313,-0.94801 l 0.137892,0.77565 z m -2.309692,-2.3614 c -0.448149,0.3792 -1.292738,0.948 -1.964961,0.948 -0.603278,0 -1.03419,-0.3792 -1.03419,-1.05142 0,-1.25827 1.568521,-1.55129 2.999151,-1.82707 z" style="font-weight:700;font-family:'Trade Gothic LT Std';-inkscape-font-specification:'Trade Gothic LT Std, Bold'" id="path837"/><path d="m 102.10616,200.19835 h 2.13732 v -4.10229 h 0.0345 c 0.43091,0.56881 1.44786,0.99972 2.1718,0.99972 2.30969,0 3.58519,-2.20627 3.58519,-4.41254 0,-2.79232 -1.20656,-4.89517 -3.58519,-4.89517 -0.96525,0 -1.67195,0.39644 -2.29246,0.99972 v -0.82735 h -2.05114 z m 2.13732,-9.89375 c 0.44815,-0.34473 0.74117,-0.79288 1.65471,-0.79288 1.2755,0 1.99943,1.03419 1.99943,2.93021 0,1.89601 -0.72393,2.9302 -1.99943,2.9302 -0.68946,0 -1.22379,-0.36197 -1.65471,-0.7584 z" style="font-weight:700;font-family:'Trade Gothic LT Std';-inkscape-font-specification:'Trade Gothic LT Std, Bold'" id="path839"/><path d="m 110.79335,187.96044 v 1.72365 h 1.24103 v 5.34331 c 0,1.2755 0.62051,2.06838 2.20627,2.06838 0.58604,0 1.10313,-0.0689 1.68917,-0.13789 v -1.75812 c -0.31025,0.0689 -0.65498,0.17236 -0.98248,0.17236 -0.53433,0 -0.77564,-0.13789 -0.77564,-0.62051 v -5.06753 h 1.75812 v -1.72365 h -1.75812 v -2.96468 h -2.13732 v 2.96468 z" style="font-weight:700;font-family:'Trade Gothic LT Std';-inkscape-font-specification:'Trade Gothic LT Std, Bold'" id="path841"/><path d="m 119.79077,187.96044 h -2.13733 v 8.96298 h 2.13733 z m 0,-1.65471 v -1.99943 h -2.13733 v 1.99943 z" style="font-weight:700;font-family:'Trade Gothic LT Std';-inkscape-font-specification:'Trade Gothic LT Std, Bold'" id="path843"/><path d="m 123.78964,196.92342 h 2.24074 l 2.56824,-8.96298 h -2.13732 l -1.51682,6.06724 h -0.0345 l -1.48234,-6.06724 h -2.13732 z" style="font-weight:700;font-family:'Trade Gothic LT Std';-inkscape-font-specification:'Trade Gothic LT Std, Bold'" id="path845"/><path d="m 131.32196,191.33879 c 0.0345,-1.24103 0.68946,-1.96496 1.72365,-1.96496 1.03419,0 1.68918,0.72393 1.72365,1.96496 z m 5.41226,1.44787 v -0.87907 c 0,-2.15456 -1.30997,-4.13676 -3.65414,-4.11952 -2.43034,0 -3.89545,1.80983 -3.89545,4.65386 0,2.84402 1.46511,4.65385 3.79203,4.65385 1.72365,0 2.93021,-0.55157 3.75756,-1.82707 l -1.55128,-0.96524 c -0.53434,0.62051 -0.99972,1.06866 -1.99944,1.06866 -0.99972,0 -1.82707,-0.72393 -1.86154,-2.58547 z" style="font-weight:700;font-family:'Trade Gothic LT Std';-inkscape-font-specification:'Trade Gothic LT Std, Bold'" id="path847"/><path d="m 147.24845,187.58123 c -0.58604,-2.20627 -1.96496,-3.27493 -4.34359,-3.27493 -3.17152,0 -4.99859,2.32693 -4.99859,6.39474 0,4.06781 1.82707,6.39474 4.99859,6.39474 2.27521,0 3.89544,-1.10313 4.63661,-3.2577 l -2.20627,-0.58604 c -0.70669,1.4651 -1.36168,1.84431 -2.43034,1.84431 -1.7926,0 -2.65443,-1.48234 -2.61995,-4.39531 0,-2.91297 0.96524,-4.39531 2.551,-4.39531 1.17208,0 1.91325,0.74117 2.25798,1.7926 z" style="fill:#c50d29" id="path849"/><path d="m 149.02378,200.19835 h 2.13733 v -4.10229 h 0.0345 c 0.43091,0.56881 1.44787,0.99972 2.1718,0.99972 2.30969,0 3.58519,-2.20627 3.58519,-4.41254 0,-2.79232 -1.20655,-4.89517 -3.58519,-4.89517 -0.96524,0 -1.67194,0.39644 -2.29245,0.99972 v -0.82735 h -2.05115 z m 2.13733,-9.89375 c 0.44815,-0.34473 0.74117,-0.79288 1.6547,-0.79288 1.2755,0 1.99944,1.03419 1.99944,2.93021 0,1.89601 -0.72394,2.9302 -1.99944,2.9302 -0.68946,0 -1.22379,-0.36197 -1.6547,-0.7584 z" style="fill:#c50d29" id="path851"/><path d="m 158.60727,200.19835 h 2.13733 v -4.10229 h 0.0345 c 0.43091,0.56881 1.44787,0.99972 2.1718,0.99972 2.30969,0 3.58519,-2.20627 3.58519,-4.41254 0,-2.79232 -1.20655,-4.89517 -3.58519,-4.89517 -0.96524,0 -1.67194,0.39644 -2.29246,0.99972 v -0.82735 h -2.05114 z m 2.13733,-9.89375 c 0.44815,-0.34473 0.74117,-0.79288 1.6547,-0.79288 1.2755,0 1.99944,1.03419 1.99944,2.93021 0,1.89601 -0.72394,2.9302 -1.99944,2.9302 -0.68946,0 -1.22379,-0.36197 -1.6547,-0.7584 z" style="fill:#c50d29" id="path853"/></g><path id="path4682" d="m 72.820953,189.60551 c -3.124836,1.73051 -5.459989,3.91523 -5.461135,6.17197 5.1e-5,5.31258 9.041477,9.62174 18.26204,9.61922 9.220562,-0.003 16.254622,-2.46399 21.400712,-3.92825 5.1461,-1.46426 11.49943,-2.13051 17.28045,-2.26569 5.78101,-0.13518 23.49744,-0.6127 23.2414,-0.63052 -0.86203,-0.06 -17.53039,0.021 -23.28397,0.021 -5.75357,0 -11.8232,0.49092 -17.68829,1.82715 -5.45497,1.2428 -11.005833,3.22267 -19.694948,3.22267 -8.689115,0 -16.394936,-4.30688 -16.394639,-9.61951 0.0062,-1.53814 0.808135,-3.05316 2.33838,-4.41797 z" style="fill:#c50d29;fill-opacity:1;stroke:none;stroke-width:.161632;stroke-linejoin:miter;stroke-miterlimit:4;stroke-dasharray:none;stroke-opacity:1"/></g></g></g></svg>